<svg width="440" height="440" viewBox="0 0 440 440" fill="none" xmlns="http://www.w3.org/2000/svg">
<g clip-path="url(#clip0_2315_1326)">
<rect width="440" height="440" rx="100" fill="black"/>
<path d="M142.96 254.8C114.213 254.8 93.3067 246.867 80.24 231C67.36 215.133 63.9067 193.107 69.88 164.92C76.2267 135.053 89.1067 111.627 108.52 94.64C128.12 77.4667 153.6 68.88 184.96 68.88C195.787 68.88 205.4 69.5333 213.8 70.84C222.387 71.96 230.32 73.8267 237.6 76.44L230.6 108.92C223.32 106.12 215.48 104.16 207.08 103.04C198.68 101.733 189.907 101.08 180.76 101.08C160.413 101.08 144.36 106.4 132.6 117.04C120.84 127.493 112.72 143.453 108.24 164.92C105.44 177.8 104.787 188.533 106.28 197.12C107.773 205.707 111.973 212.147 118.88 216.44C125.973 220.733 136.52 222.88 150.52 222.88C156.867 222.88 163.12 222.413 169.28 221.48C175.44 220.36 181.133 218.96 186.36 217.28L195.32 175.28H153.32L158.36 151.2H232.28L213.52 239.4C206.613 243.32 197.28 246.867 185.52 250.04C173.76 253.213 159.573 254.8 142.96 254.8Z" fill="white"/>
<path d="M205.28 363L243.36 182.68H318.96C344.16 182.68 362.453 190.24 373.84 205.36C385.227 220.48 387.747 243.253 381.4 273.68C375.053 304.667 363.947 327.347 348.08 341.72C332.213 355.907 309.813 363 280.88 363H205.28ZM249.24 333.88H281.72C291.613 333.88 300.48 332.293 308.32 329.12C316.347 325.76 323.253 319.787 329.04 311.2C335.013 302.427 339.68 289.92 343.04 273.68C346.587 257.44 347.8 245.027 346.68 236.44C345.56 227.853 341.827 221.973 335.48 218.8C329.32 215.627 320.173 214.04 308.04 214.04H274.72L249.24 333.88Z" fill="white"/>
</g>
<rect x="5" y="5" width="430" height="430" rx="95" stroke="#FF0000" stroke-width="10"/>
<defs>
<clipPath id="clip0_2315_1326">
<rect width="440" height="440" rx="100" fill="white"/>
</clipPath>
</defs>
</svg>
